M48
;DRILL file {Pcbnew (2013-07-07 BZR 4022)-stable} date 24.11.2014 19:11:42
;FORMAT={-:-/ absolute / metric / decimal}
FMAT,2
METRIC,TZ
T1C0.635
T2C0.800
T3C0.813
T4C1.000
T5C1.500
T6C1.780
%
G90
G05
M71
T1
X240.Y-117.5
X240.Y-125.
X243.Y-122.
X244.Y-124.
X246.Y-118.
X246.Y-126.
T2
X234.Y-113.
X234.Y-115.
X234.Y-117.
T3
X251.73Y-116.
X251.73Y-126.
X251.73Y-136.
X254.27Y-116.
X254.27Y-126.
X254.27Y-136.
X259.19Y-112.19
X259.19Y-114.73
X259.19Y-117.27
X259.19Y-119.81
X261.73Y-126.
X264.27Y-126.
X266.81Y-112.19
X266.81Y-114.73
X266.81Y-117.27
X266.81Y-119.81
X271.73Y-116.
X271.73Y-126.
X271.73Y-136.
X274.27Y-116.
X274.27Y-126.
X274.27Y-136.
T4
X238.75Y-133.75
X238.75Y-138.25
X245.25Y-133.75
X245.25Y-138.25
T5
X234.Y-110.9
X234.Y-119.1
T6
X234.665Y-102.
X242.285Y-102.
X269.715Y-102.
X277.335Y-102.
T0
M30
