G04 (created by PCBNEW (2013-07-07 BZR 4022)-stable) date 24.11.2014 19:09:12*
%MOIN*%
G04 Gerber Fmt 3.4, Leading zero omitted, Abs format*
%FSLAX34Y34*%
G01*
G70*
G90*
G04 APERTURE LIST*
%ADD10C,0.00590551*%
%ADD11C,0.005*%
%ADD12C,0.008*%
%ADD13C,0.003*%
%ADD14C,0.01*%
%ADD15C,0.006*%
%ADD16C,0.0035*%
%ADD17R,0.08X0.06*%
%ADD18C,0.066*%
%ADD19R,0.019685X0.0393701*%
%ADD20C,0.11811*%
%ADD21R,0.055X0.055*%
%ADD22C,0.055*%
%ADD23R,0.0688976X0.141732*%
%ADD24C,0.0688976*%
%ADD25C,0.0472441*%
%ADD26C,0.0787402*%
G04 APERTURE END LIST*
G54D10*
G54D11*
X98087Y-46637D02*
X97187Y-46637D01*
X97187Y-46637D02*
X97187Y-47287D01*
X98087Y-47987D02*
X98087Y-48637D01*
X98087Y-48637D02*
X97187Y-48637D01*
X97187Y-48637D02*
X97187Y-47987D01*
X98087Y-47287D02*
X98087Y-46637D01*
X94938Y-46637D02*
X94038Y-46637D01*
X94038Y-46637D02*
X94038Y-47287D01*
X94938Y-47987D02*
X94938Y-48637D01*
X94938Y-48637D02*
X94038Y-48637D01*
X94038Y-48637D02*
X94038Y-47987D01*
X94938Y-47287D02*
X94938Y-46637D01*
G54D12*
X108600Y-54293D02*
X108600Y-52793D01*
G54D13*
X108287Y-53543D02*
G75*
G03X108287Y-53543I-707J0D01*
G74*
G01*
G54D14*
X108579Y-52792D02*
G75*
G03X108579Y-54293I-999J-750D01*
G74*
G01*
G54D15*
X107580Y-53093D02*
G75*
G03X107130Y-53543I0J-450D01*
G74*
G01*
X107580Y-53993D02*
G75*
G03X108030Y-53543I0J450D01*
G74*
G01*
X107580Y-52893D02*
G75*
G03X106930Y-53543I0J-650D01*
G74*
G01*
X107580Y-54193D02*
G75*
G03X108230Y-53543I0J650D01*
G74*
G01*
X107580Y-52693D02*
G75*
G03X106730Y-53543I0J-850D01*
G74*
G01*
X107580Y-54393D02*
G75*
G03X108430Y-53543I0J850D01*
G74*
G01*
G54D12*
X108600Y-50356D02*
X108600Y-48856D01*
G54D13*
X108287Y-49606D02*
G75*
G03X108287Y-49606I-707J0D01*
G74*
G01*
G54D14*
X108579Y-48855D02*
G75*
G03X108579Y-50356I-999J-750D01*
G74*
G01*
G54D15*
X107580Y-49156D02*
G75*
G03X107130Y-49606I0J-450D01*
G74*
G01*
X107580Y-50056D02*
G75*
G03X108030Y-49606I0J450D01*
G74*
G01*
X107580Y-48956D02*
G75*
G03X106930Y-49606I0J-650D01*
G74*
G01*
X107580Y-50256D02*
G75*
G03X108230Y-49606I0J650D01*
G74*
G01*
X107580Y-48756D02*
G75*
G03X106730Y-49606I0J-850D01*
G74*
G01*
X107580Y-50456D02*
G75*
G03X108430Y-49606I0J850D01*
G74*
G01*
G54D12*
X108600Y-46419D02*
X108600Y-44919D01*
G54D13*
X108287Y-45669D02*
G75*
G03X108287Y-45669I-707J0D01*
G74*
G01*
G54D14*
X108579Y-44918D02*
G75*
G03X108579Y-46419I-999J-750D01*
G74*
G01*
G54D15*
X107580Y-45219D02*
G75*
G03X107130Y-45669I0J-450D01*
G74*
G01*
X107580Y-46119D02*
G75*
G03X108030Y-45669I0J450D01*
G74*
G01*
X107580Y-45019D02*
G75*
G03X106930Y-45669I0J-650D01*
G74*
G01*
X107580Y-46319D02*
G75*
G03X108230Y-45669I0J650D01*
G74*
G01*
X107580Y-44819D02*
G75*
G03X106730Y-45669I0J-850D01*
G74*
G01*
X107580Y-46519D02*
G75*
G03X108430Y-45669I0J850D01*
G74*
G01*
G54D12*
X104663Y-50356D02*
X104663Y-48856D01*
G54D13*
X104350Y-49606D02*
G75*
G03X104350Y-49606I-707J0D01*
G74*
G01*
G54D14*
X104642Y-48855D02*
G75*
G03X104642Y-50356I-999J-750D01*
G74*
G01*
G54D15*
X103643Y-49156D02*
G75*
G03X103193Y-49606I0J-450D01*
G74*
G01*
X103643Y-50056D02*
G75*
G03X104093Y-49606I0J450D01*
G74*
G01*
X103643Y-48956D02*
G75*
G03X102993Y-49606I0J-650D01*
G74*
G01*
X103643Y-50256D02*
G75*
G03X104293Y-49606I0J650D01*
G74*
G01*
X103643Y-48756D02*
G75*
G03X102793Y-49606I0J-850D01*
G74*
G01*
X103643Y-50456D02*
G75*
G03X104493Y-49606I0J850D01*
G74*
G01*
G54D12*
X100726Y-54293D02*
X100726Y-52793D01*
G54D13*
X100413Y-53543D02*
G75*
G03X100413Y-53543I-707J0D01*
G74*
G01*
G54D14*
X100705Y-52792D02*
G75*
G03X100705Y-54293I-999J-750D01*
G74*
G01*
G54D15*
X99706Y-53093D02*
G75*
G03X99256Y-53543I0J-450D01*
G74*
G01*
X99706Y-53993D02*
G75*
G03X100156Y-53543I0J450D01*
G74*
G01*
X99706Y-52893D02*
G75*
G03X99056Y-53543I0J-650D01*
G74*
G01*
X99706Y-54193D02*
G75*
G03X100356Y-53543I0J650D01*
G74*
G01*
X99706Y-52693D02*
G75*
G03X98856Y-53543I0J-850D01*
G74*
G01*
X99706Y-54393D02*
G75*
G03X100556Y-53543I0J850D01*
G74*
G01*
G54D12*
X100726Y-50356D02*
X100726Y-48856D01*
G54D13*
X100413Y-49606D02*
G75*
G03X100413Y-49606I-707J0D01*
G74*
G01*
G54D14*
X100705Y-48855D02*
G75*
G03X100705Y-50356I-999J-750D01*
G74*
G01*
G54D15*
X99706Y-49156D02*
G75*
G03X99256Y-49606I0J-450D01*
G74*
G01*
X99706Y-50056D02*
G75*
G03X100156Y-49606I0J450D01*
G74*
G01*
X99706Y-48956D02*
G75*
G03X99056Y-49606I0J-650D01*
G74*
G01*
X99706Y-50256D02*
G75*
G03X100356Y-49606I0J650D01*
G74*
G01*
X99706Y-48756D02*
G75*
G03X98856Y-49606I0J-850D01*
G74*
G01*
X99706Y-50456D02*
G75*
G03X100556Y-49606I0J850D01*
G74*
G01*
G54D12*
X100726Y-46419D02*
X100726Y-44919D01*
G54D13*
X100413Y-45669D02*
G75*
G03X100413Y-45669I-707J0D01*
G74*
G01*
G54D14*
X100705Y-44918D02*
G75*
G03X100705Y-46419I-999J-750D01*
G74*
G01*
G54D15*
X99706Y-45219D02*
G75*
G03X99256Y-45669I0J-450D01*
G74*
G01*
X99706Y-46119D02*
G75*
G03X100156Y-45669I0J450D01*
G74*
G01*
X99706Y-45019D02*
G75*
G03X99056Y-45669I0J-650D01*
G74*
G01*
X99706Y-46319D02*
G75*
G03X100356Y-45669I0J650D01*
G74*
G01*
X99706Y-44819D02*
G75*
G03X98856Y-45669I0J-850D01*
G74*
G01*
X99706Y-46519D02*
G75*
G03X100556Y-45669I0J850D01*
G74*
G01*
G54D10*
X95843Y-46929D02*
G75*
G03X95843Y-46929I-55J0D01*
G74*
G01*
X95669Y-47047D02*
X96456Y-47047D01*
X96456Y-47047D02*
X96456Y-46653D01*
X96456Y-46653D02*
X96062Y-46653D01*
X96062Y-46653D02*
X95669Y-46653D01*
X95669Y-46653D02*
X95669Y-47047D01*
X97244Y-40551D02*
X97244Y-39763D01*
X97244Y-39763D02*
X97637Y-39763D01*
X97637Y-39763D02*
X97637Y-38976D01*
X97637Y-38976D02*
X104330Y-38976D01*
X104330Y-38976D02*
X104330Y-41338D01*
X104330Y-41338D02*
X97637Y-41338D01*
X97637Y-41338D02*
X97637Y-40551D01*
X97637Y-40551D02*
X97244Y-40551D01*
G54D14*
X103043Y-47669D02*
X103043Y-47169D01*
X103043Y-47169D02*
X104043Y-47169D01*
X104043Y-47169D02*
X104043Y-47669D01*
X102543Y-47669D02*
X102543Y-43669D01*
X102543Y-43669D02*
X104543Y-43669D01*
X104543Y-43669D02*
X104543Y-47669D01*
X104543Y-47669D02*
X102543Y-47669D01*
G54D10*
X95832Y-53543D02*
G75*
G03X95832Y-53543I-556J0D01*
G74*
G01*
X94389Y-52657D02*
X94389Y-54429D01*
X94389Y-54429D02*
X96161Y-54429D01*
X96161Y-54429D02*
X96161Y-52657D01*
X94389Y-52657D02*
X96161Y-52657D01*
X92992Y-45275D02*
X92992Y-43582D01*
X92992Y-43582D02*
X92598Y-43582D01*
X91259Y-45275D02*
X91259Y-43582D01*
X91259Y-43582D02*
X91653Y-43582D01*
X91259Y-45275D02*
X91259Y-46968D01*
X91259Y-46968D02*
X91653Y-46968D01*
X92992Y-45275D02*
X92992Y-46968D01*
X92992Y-46968D02*
X92598Y-46968D01*
G54D11*
X96943Y-47687D02*
X96957Y-47702D01*
X96971Y-47744D01*
X96971Y-47773D01*
X96957Y-47816D01*
X96928Y-47844D01*
X96900Y-47859D01*
X96843Y-47873D01*
X96800Y-47873D01*
X96743Y-47859D01*
X96714Y-47844D01*
X96686Y-47816D01*
X96671Y-47773D01*
X96671Y-47744D01*
X96686Y-47702D01*
X96700Y-47687D01*
X96671Y-47587D02*
X96671Y-47402D01*
X96786Y-47502D01*
X96786Y-47459D01*
X96800Y-47430D01*
X96814Y-47416D01*
X96843Y-47402D01*
X96914Y-47402D01*
X96943Y-47416D01*
X96957Y-47430D01*
X96971Y-47459D01*
X96971Y-47544D01*
X96957Y-47573D01*
X96943Y-47587D01*
X93793Y-47687D02*
X93807Y-47702D01*
X93822Y-47744D01*
X93822Y-47773D01*
X93807Y-47816D01*
X93779Y-47844D01*
X93750Y-47859D01*
X93693Y-47873D01*
X93650Y-47873D01*
X93593Y-47859D01*
X93565Y-47844D01*
X93536Y-47816D01*
X93522Y-47773D01*
X93522Y-47744D01*
X93536Y-47702D01*
X93550Y-47687D01*
X93550Y-47573D02*
X93536Y-47559D01*
X93522Y-47530D01*
X93522Y-47459D01*
X93536Y-47430D01*
X93550Y-47416D01*
X93579Y-47402D01*
X93607Y-47402D01*
X93650Y-47416D01*
X93822Y-47587D01*
X93822Y-47402D01*
G54D16*
X108833Y-53664D02*
X108833Y-53364D01*
X108947Y-53364D01*
X108976Y-53379D01*
X108990Y-53393D01*
X109005Y-53421D01*
X109005Y-53464D01*
X108990Y-53493D01*
X108976Y-53507D01*
X108947Y-53521D01*
X108833Y-53521D01*
X109105Y-53364D02*
X109305Y-53364D01*
X109176Y-53664D01*
X108833Y-49727D02*
X108833Y-49427D01*
X108947Y-49427D01*
X108976Y-49442D01*
X108990Y-49456D01*
X109005Y-49484D01*
X109005Y-49527D01*
X108990Y-49556D01*
X108976Y-49570D01*
X108947Y-49584D01*
X108833Y-49584D01*
X109262Y-49427D02*
X109205Y-49427D01*
X109176Y-49442D01*
X109162Y-49456D01*
X109133Y-49499D01*
X109119Y-49556D01*
X109119Y-49670D01*
X109133Y-49699D01*
X109147Y-49713D01*
X109176Y-49727D01*
X109233Y-49727D01*
X109262Y-49713D01*
X109276Y-49699D01*
X109290Y-49670D01*
X109290Y-49599D01*
X109276Y-49570D01*
X109262Y-49556D01*
X109233Y-49542D01*
X109176Y-49542D01*
X109147Y-49556D01*
X109133Y-49570D01*
X109119Y-49599D01*
X108833Y-45790D02*
X108833Y-45490D01*
X108947Y-45490D01*
X108976Y-45505D01*
X108990Y-45519D01*
X109005Y-45547D01*
X109005Y-45590D01*
X108990Y-45619D01*
X108976Y-45633D01*
X108947Y-45647D01*
X108833Y-45647D01*
X109276Y-45490D02*
X109133Y-45490D01*
X109119Y-45633D01*
X109133Y-45619D01*
X109162Y-45605D01*
X109233Y-45605D01*
X109262Y-45619D01*
X109276Y-45633D01*
X109290Y-45662D01*
X109290Y-45733D01*
X109276Y-45762D01*
X109262Y-45776D01*
X109233Y-45790D01*
X109162Y-45790D01*
X109133Y-45776D01*
X109119Y-45762D01*
X104896Y-49727D02*
X104896Y-49427D01*
X105010Y-49427D01*
X105039Y-49442D01*
X105053Y-49456D01*
X105068Y-49484D01*
X105068Y-49527D01*
X105053Y-49556D01*
X105039Y-49570D01*
X105010Y-49584D01*
X104896Y-49584D01*
X105325Y-49527D02*
X105325Y-49727D01*
X105253Y-49413D02*
X105182Y-49627D01*
X105368Y-49627D01*
X100959Y-53664D02*
X100959Y-53364D01*
X101073Y-53364D01*
X101102Y-53379D01*
X101116Y-53393D01*
X101131Y-53421D01*
X101131Y-53464D01*
X101116Y-53493D01*
X101102Y-53507D01*
X101073Y-53521D01*
X100959Y-53521D01*
X101231Y-53364D02*
X101416Y-53364D01*
X101316Y-53479D01*
X101359Y-53479D01*
X101388Y-53493D01*
X101402Y-53507D01*
X101416Y-53536D01*
X101416Y-53607D01*
X101402Y-53636D01*
X101388Y-53650D01*
X101359Y-53664D01*
X101273Y-53664D01*
X101245Y-53650D01*
X101231Y-53636D01*
X100959Y-49727D02*
X100959Y-49427D01*
X101073Y-49427D01*
X101102Y-49442D01*
X101116Y-49456D01*
X101131Y-49484D01*
X101131Y-49527D01*
X101116Y-49556D01*
X101102Y-49570D01*
X101073Y-49584D01*
X100959Y-49584D01*
X101245Y-49456D02*
X101259Y-49442D01*
X101288Y-49427D01*
X101359Y-49427D01*
X101388Y-49442D01*
X101402Y-49456D01*
X101416Y-49484D01*
X101416Y-49513D01*
X101402Y-49556D01*
X101231Y-49727D01*
X101416Y-49727D01*
X100959Y-45790D02*
X100959Y-45490D01*
X101073Y-45490D01*
X101102Y-45505D01*
X101116Y-45519D01*
X101131Y-45547D01*
X101131Y-45590D01*
X101116Y-45619D01*
X101102Y-45633D01*
X101073Y-45647D01*
X100959Y-45647D01*
X101416Y-45790D02*
X101245Y-45790D01*
X101331Y-45790D02*
X101331Y-45490D01*
X101302Y-45533D01*
X101273Y-45562D01*
X101245Y-45576D01*
G54D10*
X103318Y-40171D02*
X103768Y-40171D01*
X97806Y-40171D02*
X98256Y-40171D01*
X98031Y-40396D02*
X98031Y-39946D01*
X98959Y-40227D02*
X99240Y-40227D01*
X98903Y-40396D02*
X99100Y-39805D01*
X99296Y-40396D01*
X99465Y-40227D02*
X99746Y-40227D01*
X99409Y-40396D02*
X99606Y-39805D01*
X99803Y-40396D01*
X99971Y-40227D02*
X100253Y-40227D01*
X99915Y-40396D02*
X100112Y-39805D01*
X100309Y-40396D01*
X101265Y-40396D02*
X100928Y-40396D01*
X101096Y-40396D02*
X101096Y-39805D01*
X101040Y-39890D01*
X100984Y-39946D01*
X100928Y-39974D01*
X101518Y-40340D02*
X101546Y-40368D01*
X101518Y-40396D01*
X101490Y-40368D01*
X101518Y-40340D01*
X101518Y-40396D01*
X102080Y-39805D02*
X101799Y-39805D01*
X101771Y-40087D01*
X101799Y-40059D01*
X101856Y-40030D01*
X101996Y-40030D01*
X102052Y-40059D01*
X102080Y-40087D01*
X102109Y-40143D01*
X102109Y-40284D01*
X102080Y-40340D01*
X102052Y-40368D01*
X101996Y-40396D01*
X101856Y-40396D01*
X101799Y-40368D01*
X101771Y-40340D01*
X102277Y-39805D02*
X102474Y-40396D01*
X102671Y-39805D01*
G54D12*
X103211Y-43509D02*
X103211Y-43009D01*
X103468Y-43509D02*
X103275Y-43223D01*
X103468Y-43009D02*
X103211Y-43295D01*
X103896Y-43509D02*
X103639Y-43509D01*
X103768Y-43509D02*
X103768Y-43009D01*
X103725Y-43080D01*
X103682Y-43128D01*
X103639Y-43152D01*
G54D10*
X95603Y-43822D02*
X95584Y-43841D01*
X95528Y-43860D01*
X95491Y-43860D01*
X95434Y-43841D01*
X95397Y-43803D01*
X95378Y-43766D01*
X95359Y-43691D01*
X95359Y-43635D01*
X95378Y-43560D01*
X95397Y-43522D01*
X95434Y-43485D01*
X95491Y-43466D01*
X95528Y-43466D01*
X95584Y-43485D01*
X95603Y-43503D01*
X95978Y-43860D02*
X95753Y-43860D01*
X95866Y-43860D02*
X95866Y-43466D01*
X95828Y-43522D01*
X95791Y-43560D01*
X95753Y-43578D01*
X94975Y-52502D02*
X95031Y-52521D01*
X95125Y-52521D01*
X95163Y-52502D01*
X95181Y-52484D01*
X95200Y-52446D01*
X95200Y-52409D01*
X95181Y-52371D01*
X95163Y-52352D01*
X95125Y-52334D01*
X95050Y-52315D01*
X95013Y-52296D01*
X94994Y-52277D01*
X94975Y-52240D01*
X94975Y-52202D01*
X94994Y-52165D01*
X95013Y-52146D01*
X95050Y-52127D01*
X95144Y-52127D01*
X95200Y-52146D01*
X95350Y-52165D02*
X95369Y-52146D01*
X95406Y-52127D01*
X95500Y-52127D01*
X95538Y-52146D01*
X95556Y-52165D01*
X95575Y-52202D01*
X95575Y-52240D01*
X95556Y-52296D01*
X95331Y-52521D01*
X95575Y-52521D01*
X93230Y-46831D02*
X93230Y-46756D01*
X93248Y-46719D01*
X93286Y-46681D01*
X93361Y-46662D01*
X93492Y-46662D01*
X93567Y-46681D01*
X93605Y-46719D01*
X93623Y-46756D01*
X93623Y-46831D01*
X93605Y-46869D01*
X93567Y-46906D01*
X93492Y-46925D01*
X93361Y-46925D01*
X93286Y-46906D01*
X93248Y-46869D01*
X93230Y-46831D01*
X93417Y-46362D02*
X93417Y-46494D01*
X93623Y-46494D02*
X93230Y-46494D01*
X93230Y-46306D01*
X93417Y-46025D02*
X93417Y-46156D01*
X93623Y-46156D02*
X93230Y-46156D01*
X93230Y-45969D01*
X93230Y-44141D02*
X93230Y-44066D01*
X93248Y-44028D01*
X93286Y-43991D01*
X93361Y-43972D01*
X93492Y-43972D01*
X93567Y-43991D01*
X93605Y-44028D01*
X93623Y-44066D01*
X93623Y-44141D01*
X93605Y-44178D01*
X93567Y-44216D01*
X93492Y-44235D01*
X93361Y-44235D01*
X93286Y-44216D01*
X93248Y-44178D01*
X93230Y-44141D01*
X93623Y-43803D02*
X93230Y-43803D01*
X93623Y-43578D01*
X93230Y-43578D01*
%LPC*%
G54D17*
X97637Y-46987D03*
X97637Y-48287D03*
X94488Y-46987D03*
X94488Y-48287D03*
G54D18*
X106980Y-53543D03*
X107980Y-53543D03*
X106980Y-49606D03*
X107980Y-49606D03*
X106980Y-45669D03*
X107980Y-45669D03*
X103043Y-49606D03*
X104043Y-49606D03*
X99106Y-53543D03*
X100106Y-53543D03*
X99106Y-49606D03*
X100106Y-49606D03*
X99106Y-45669D03*
X100106Y-45669D03*
G54D19*
X96062Y-47283D03*
X96318Y-47283D03*
X95807Y-47283D03*
X95807Y-46417D03*
X96062Y-46417D03*
X96318Y-46417D03*
G54D20*
X95387Y-40157D03*
X106187Y-40157D03*
X92387Y-40157D03*
X109187Y-40157D03*
G54D21*
X105043Y-47169D03*
G54D22*
X105043Y-46169D03*
X105043Y-45169D03*
X105043Y-44169D03*
X102043Y-44169D03*
X102043Y-45169D03*
X102043Y-46169D03*
X102043Y-47169D03*
G54D23*
X94978Y-44881D03*
X96360Y-44881D03*
G54D24*
X93996Y-54429D03*
X93996Y-52657D03*
X96555Y-52657D03*
X96555Y-54429D03*
G54D25*
X92125Y-45275D03*
X92125Y-46062D03*
G54D26*
X92125Y-46889D03*
X92125Y-43661D03*
G54D25*
X92125Y-44488D03*
M02*
