G04 (created by PCBNEW (2013-07-07 BZR 4022)-stable) date 24.11.2014 19:09:12*
%MOIN*%
G04 Gerber Fmt 3.4, Leading zero omitted, Abs format*
%FSLAX34Y34*%
G01*
G70*
G90*
G04 APERTURE LIST*
%ADD10C,0.00590551*%
%ADD11R,0.08X0.06*%
%ADD12C,0.066*%
%ADD13R,0.019685X0.0393701*%
%ADD14C,0.11811*%
%ADD15R,0.055X0.055*%
%ADD16C,0.055*%
%ADD17R,0.0688976X0.141732*%
%ADD18C,0.0688976*%
%ADD19C,0.0472441*%
%ADD20C,0.0787402*%
G04 APERTURE END LIST*
G54D10*
G54D11*
X97637Y-46987D03*
X97637Y-48287D03*
X94488Y-46987D03*
X94488Y-48287D03*
G54D12*
X106980Y-53543D03*
X107980Y-53543D03*
X106980Y-49606D03*
X107980Y-49606D03*
X106980Y-45669D03*
X107980Y-45669D03*
X103043Y-49606D03*
X104043Y-49606D03*
X99106Y-53543D03*
X100106Y-53543D03*
X99106Y-49606D03*
X100106Y-49606D03*
X99106Y-45669D03*
X100106Y-45669D03*
G54D13*
X96062Y-47283D03*
X96318Y-47283D03*
X95807Y-47283D03*
X95807Y-46417D03*
X96062Y-46417D03*
X96318Y-46417D03*
G54D14*
X95387Y-40157D03*
X106187Y-40157D03*
X92387Y-40157D03*
X109187Y-40157D03*
G54D15*
X105043Y-47169D03*
G54D16*
X105043Y-46169D03*
X105043Y-45169D03*
X105043Y-44169D03*
X102043Y-44169D03*
X102043Y-45169D03*
X102043Y-46169D03*
X102043Y-47169D03*
G54D17*
X94978Y-44881D03*
X96360Y-44881D03*
G54D18*
X93996Y-54429D03*
X93996Y-52657D03*
X96555Y-52657D03*
X96555Y-54429D03*
G54D19*
X92125Y-45275D03*
X92125Y-46062D03*
G54D20*
X92125Y-46889D03*
X92125Y-43661D03*
G54D19*
X92125Y-44488D03*
M02*
