G04 (created by PCBNEW (2013-07-07 BZR 4022)-stable) date 24.11.2014 19:09:12*
%MOIN*%
G04 Gerber Fmt 3.4, Leading zero omitted, Abs format*
%FSLAX34Y34*%
G01*
G70*
G90*
G04 APERTURE LIST*
%ADD10C,0.00590551*%
%ADD11C,0.005*%
%ADD12R,0.06X0.08*%
%ADD13C,0.066*%
%ADD14C,0.11811*%
%ADD15R,0.055X0.055*%
%ADD16C,0.055*%
%ADD17C,0.0688976*%
%ADD18C,0.0472441*%
%ADD19C,0.0787402*%
G04 APERTURE END LIST*
G54D10*
G54D11*
X100606Y-43250D02*
X100606Y-44150D01*
X100606Y-44150D02*
X99956Y-44150D01*
X99256Y-43250D02*
X98606Y-43250D01*
X98606Y-43250D02*
X98606Y-44150D01*
X98606Y-44150D02*
X99256Y-44150D01*
X99956Y-43250D02*
X100606Y-43250D01*
X108480Y-51124D02*
X108480Y-52024D01*
X108480Y-52024D02*
X107830Y-52024D01*
X107130Y-51124D02*
X106480Y-51124D01*
X106480Y-51124D02*
X106480Y-52024D01*
X106480Y-52024D02*
X107130Y-52024D01*
X107830Y-51124D02*
X108480Y-51124D01*
X100606Y-47187D02*
X100606Y-48087D01*
X100606Y-48087D02*
X99956Y-48087D01*
X99256Y-47187D02*
X98606Y-47187D01*
X98606Y-47187D02*
X98606Y-48087D01*
X98606Y-48087D02*
X99256Y-48087D01*
X99956Y-47187D02*
X100606Y-47187D01*
X100606Y-51124D02*
X100606Y-52024D01*
X100606Y-52024D02*
X99956Y-52024D01*
X99256Y-51124D02*
X98606Y-51124D01*
X98606Y-51124D02*
X98606Y-52024D01*
X98606Y-52024D02*
X99256Y-52024D01*
X99956Y-51124D02*
X100606Y-51124D01*
X104543Y-51124D02*
X104543Y-52024D01*
X104543Y-52024D02*
X103893Y-52024D01*
X103193Y-51124D02*
X102543Y-51124D01*
X102543Y-51124D02*
X102543Y-52024D01*
X102543Y-52024D02*
X103193Y-52024D01*
X103893Y-51124D02*
X104543Y-51124D01*
X108480Y-43250D02*
X108480Y-44150D01*
X108480Y-44150D02*
X107830Y-44150D01*
X107130Y-43250D02*
X106480Y-43250D01*
X106480Y-43250D02*
X106480Y-44150D01*
X106480Y-44150D02*
X107130Y-44150D01*
X107830Y-43250D02*
X108480Y-43250D01*
X108480Y-47187D02*
X108480Y-48087D01*
X108480Y-48087D02*
X107830Y-48087D01*
X107130Y-47187D02*
X106480Y-47187D01*
X106480Y-47187D02*
X106480Y-48087D01*
X106480Y-48087D02*
X107130Y-48087D01*
X107830Y-47187D02*
X108480Y-47187D01*
X99656Y-43822D02*
X99756Y-43679D01*
X99827Y-43822D02*
X99827Y-43522D01*
X99713Y-43522D01*
X99684Y-43536D01*
X99670Y-43550D01*
X99656Y-43579D01*
X99656Y-43622D01*
X99670Y-43650D01*
X99684Y-43665D01*
X99713Y-43679D01*
X99827Y-43679D01*
X99370Y-43822D02*
X99542Y-43822D01*
X99456Y-43822D02*
X99456Y-43522D01*
X99484Y-43565D01*
X99513Y-43593D01*
X99542Y-43607D01*
X107530Y-51696D02*
X107630Y-51553D01*
X107701Y-51696D02*
X107701Y-51396D01*
X107587Y-51396D01*
X107558Y-51410D01*
X107544Y-51424D01*
X107530Y-51453D01*
X107530Y-51496D01*
X107544Y-51524D01*
X107558Y-51539D01*
X107587Y-51553D01*
X107701Y-51553D01*
X107430Y-51396D02*
X107230Y-51396D01*
X107358Y-51696D01*
X99656Y-47759D02*
X99756Y-47616D01*
X99827Y-47759D02*
X99827Y-47459D01*
X99713Y-47459D01*
X99684Y-47473D01*
X99670Y-47487D01*
X99656Y-47516D01*
X99656Y-47559D01*
X99670Y-47587D01*
X99684Y-47602D01*
X99713Y-47616D01*
X99827Y-47616D01*
X99542Y-47487D02*
X99527Y-47473D01*
X99499Y-47459D01*
X99427Y-47459D01*
X99399Y-47473D01*
X99384Y-47487D01*
X99370Y-47516D01*
X99370Y-47544D01*
X99384Y-47587D01*
X99556Y-47759D01*
X99370Y-47759D01*
X99656Y-51696D02*
X99756Y-51553D01*
X99827Y-51696D02*
X99827Y-51396D01*
X99713Y-51396D01*
X99684Y-51410D01*
X99670Y-51424D01*
X99656Y-51453D01*
X99656Y-51496D01*
X99670Y-51524D01*
X99684Y-51539D01*
X99713Y-51553D01*
X99827Y-51553D01*
X99556Y-51396D02*
X99370Y-51396D01*
X99470Y-51510D01*
X99427Y-51510D01*
X99399Y-51524D01*
X99384Y-51539D01*
X99370Y-51567D01*
X99370Y-51639D01*
X99384Y-51667D01*
X99399Y-51681D01*
X99427Y-51696D01*
X99513Y-51696D01*
X99542Y-51681D01*
X99556Y-51667D01*
X103593Y-51696D02*
X103693Y-51553D01*
X103764Y-51696D02*
X103764Y-51396D01*
X103650Y-51396D01*
X103621Y-51410D01*
X103607Y-51424D01*
X103593Y-51453D01*
X103593Y-51496D01*
X103607Y-51524D01*
X103621Y-51539D01*
X103650Y-51553D01*
X103764Y-51553D01*
X103336Y-51496D02*
X103336Y-51696D01*
X103407Y-51381D02*
X103479Y-51596D01*
X103293Y-51596D01*
X107530Y-43822D02*
X107630Y-43679D01*
X107701Y-43822D02*
X107701Y-43522D01*
X107587Y-43522D01*
X107558Y-43536D01*
X107544Y-43550D01*
X107530Y-43579D01*
X107530Y-43622D01*
X107544Y-43650D01*
X107558Y-43665D01*
X107587Y-43679D01*
X107701Y-43679D01*
X107258Y-43522D02*
X107401Y-43522D01*
X107416Y-43665D01*
X107401Y-43650D01*
X107373Y-43636D01*
X107301Y-43636D01*
X107273Y-43650D01*
X107258Y-43665D01*
X107244Y-43693D01*
X107244Y-43765D01*
X107258Y-43793D01*
X107273Y-43807D01*
X107301Y-43822D01*
X107373Y-43822D01*
X107401Y-43807D01*
X107416Y-43793D01*
X107530Y-47759D02*
X107630Y-47616D01*
X107701Y-47759D02*
X107701Y-47459D01*
X107587Y-47459D01*
X107558Y-47473D01*
X107544Y-47487D01*
X107530Y-47516D01*
X107530Y-47559D01*
X107544Y-47587D01*
X107558Y-47602D01*
X107587Y-47616D01*
X107701Y-47616D01*
X107273Y-47459D02*
X107330Y-47459D01*
X107358Y-47473D01*
X107373Y-47487D01*
X107401Y-47530D01*
X107416Y-47587D01*
X107416Y-47702D01*
X107401Y-47730D01*
X107387Y-47744D01*
X107358Y-47759D01*
X107301Y-47759D01*
X107273Y-47744D01*
X107258Y-47730D01*
X107244Y-47702D01*
X107244Y-47630D01*
X107258Y-47602D01*
X107273Y-47587D01*
X107301Y-47573D01*
X107358Y-47573D01*
X107387Y-47587D01*
X107401Y-47602D01*
X107416Y-47630D01*
%LPC*%
G54D12*
X100256Y-43700D03*
X98956Y-43700D03*
X108130Y-51574D03*
X106830Y-51574D03*
X100256Y-47637D03*
X98956Y-47637D03*
X100256Y-51574D03*
X98956Y-51574D03*
X104193Y-51574D03*
X102893Y-51574D03*
X108130Y-43700D03*
X106830Y-43700D03*
X108130Y-47637D03*
X106830Y-47637D03*
G54D13*
X106980Y-53543D03*
X107980Y-53543D03*
X106980Y-49606D03*
X107980Y-49606D03*
X106980Y-45669D03*
X107980Y-45669D03*
X103043Y-49606D03*
X104043Y-49606D03*
X99106Y-53543D03*
X100106Y-53543D03*
X99106Y-49606D03*
X100106Y-49606D03*
X99106Y-45669D03*
X100106Y-45669D03*
G54D14*
X95387Y-40157D03*
X106187Y-40157D03*
X92387Y-40157D03*
X109187Y-40157D03*
G54D15*
X105043Y-47169D03*
G54D16*
X105043Y-46169D03*
X105043Y-45169D03*
X105043Y-44169D03*
X102043Y-44169D03*
X102043Y-45169D03*
X102043Y-46169D03*
X102043Y-47169D03*
G54D17*
X93996Y-54429D03*
X93996Y-52657D03*
X96555Y-52657D03*
X96555Y-54429D03*
G54D18*
X92125Y-45275D03*
X92125Y-46062D03*
G54D19*
X92125Y-46889D03*
X92125Y-43661D03*
G54D18*
X92125Y-44488D03*
M02*
